<mxfile><diagram id="scfNx6P5dY25CuSYOeAO" name="Page-1"><mxGraphModel dx="411" dy="249" grid="1" gridSize="10" guides="1" tooltips="1" connect="1" arrows="1" fold="1" page="1" pageScale="1" pageWidth="850" pageHeight="1100" math="0" shadow="0"><root><mxCell id="0"/><mxCell id="1" parent="0"/><mxCell id="2" value="User" style="rounded=0;whiteSpace=wrap;html=1;" parent="1" vertex="1"><mxGeometry x="230" y="80" width="120" height="30" as="geometry"/></mxCell><mxCell id="5" value="Not Logged" style="rounded=0;whiteSpace=wrap;html=1;" parent="1" vertex="1"><mxGeometry x="160" y="150" width="120" height="30" as="geometry"/></mxCell><mxCell id="6" value="Logged" style="rounded=0;whiteSpace=wrap;html=1;" parent="1" vertex="1"><mxGeometry x="300" y="150" width="120" height="30" as="geometry"/></mxCell><mxCell id="7" value="Login&lt;br&gt;Page&lt;br&gt;(SSG)" style="whiteSpace=wrap;html=1;aspect=fixed;" parent="1" vertex="1"><mxGeometry x="10" y="150" width="80" height="80" as="geometry"/></mxCell><mxCell id="8" value="" style="endArrow=classic;html=1;" parent="1" edge="1"><mxGeometry width="50" height="50" relative="1" as="geometry"><mxPoint x="290" y="120" as="sourcePoint"/><mxPoint x="250" y="140" as="targetPoint"/></mxGeometry></mxCell><mxCell id="9" value="" style="endArrow=classic;html=1;" parent="1" edge="1"><mxGeometry width="50" height="50" relative="1" as="geometry"><mxPoint x="290" y="120" as="sourcePoint"/><mxPoint x="330" y="140" as="targetPoint"/></mxGeometry></mxCell><mxCell id="10" value="" style="endArrow=classic;html=1;" parent="1" edge="1"><mxGeometry width="50" height="50" relative="1" as="geometry"><mxPoint x="230" y="210" as="sourcePoint"/><mxPoint x="110" y="210" as="targetPoint"/></mxGeometry></mxCell><mxCell id="11" value="" style="endArrow=none;html=1;" parent="1" edge="1"><mxGeometry width="50" height="50" relative="1" as="geometry"><mxPoint x="230" y="210" as="sourcePoint"/><mxPoint x="230" y="190" as="targetPoint"/></mxGeometry></mxCell><mxCell id="12" value="" style="endArrow=classic;html=1;" parent="1" edge="1"><mxGeometry width="50" height="50" relative="1" as="geometry"><mxPoint x="370" y="40" as="sourcePoint"/><mxPoint x="370" y="140" as="targetPoint"/></mxGeometry></mxCell><mxCell id="13" value="" style="endArrow=none;html=1;" parent="1" edge="1"><mxGeometry width="50" height="50" relative="1" as="geometry"><mxPoint x="50" y="40" as="sourcePoint"/><mxPoint x="130" y="40" as="targetPoint"/></mxGeometry></mxCell><mxCell id="14" value="" style="endArrow=none;html=1;" parent="1" edge="1"><mxGeometry width="50" height="50" relative="1" as="geometry"><mxPoint x="50" y="140" as="sourcePoint"/><mxPoint x="49.75999999999999" y="40" as="targetPoint"/></mxGeometry></mxCell><mxCell id="16" value="Success" style="rhombus;whiteSpace=wrap;html=1;" parent="1" vertex="1"><mxGeometry x="130" y="20" width="80" height="40" as="geometry"/></mxCell><mxCell id="17" value="" style="endArrow=none;html=1;" parent="1" edge="1"><mxGeometry width="50" height="50" relative="1" as="geometry"><mxPoint x="210" y="39.76" as="sourcePoint"/><mxPoint x="370" y="40" as="targetPoint"/></mxGeometry></mxCell><mxCell id="19" value="" style="endArrow=classic;html=1;" parent="1" edge="1"><mxGeometry width="50" height="50" relative="1" as="geometry"><mxPoint x="169.76" y="60" as="sourcePoint"/><mxPoint x="170" y="140" as="targetPoint"/></mxGeometry></mxCell><mxCell id="21" value="redirect /" style="text;html=1;strokeColor=none;fillColor=none;align=center;verticalAlign=middle;whiteSpace=wrap;rounded=0;" parent="1" vertex="1"><mxGeometry x="210" y="10" width="60" height="30" as="geometry"/></mxCell><mxCell id="22" value="redirect /login" style="text;html=1;strokeColor=none;fillColor=none;align=center;verticalAlign=middle;whiteSpace=wrap;rounded=0;" parent="1" vertex="1"><mxGeometry x="80" y="80" width="80" height="30" as="geometry"/></mxCell><mxCell id="23" value="" style="endArrow=none;dashed=1;html=1;fillColor=#60a917;strokeColor=#2D7600;" parent="1" edge="1"><mxGeometry width="50" height="50" relative="1" as="geometry"><mxPoint x="70" y="60" as="sourcePoint"/><mxPoint x="120" y="10" as="targetPoint"/></mxGeometry></mxCell><mxCell id="24" value="transition" style="text;html=1;align=center;verticalAlign=middle;whiteSpace=wrap;rounded=0;" parent="1" vertex="1"><mxGeometry x="40" y="10" width="60" height="30" as="geometry"/></mxCell><mxCell id="26" value="Main&lt;br&gt;Page&lt;br&gt;(SSG - If not real-time)" style="whiteSpace=wrap;html=1;aspect=fixed;" parent="1" vertex="1"><mxGeometry x="230" y="240" width="80" height="80" as="geometry"/></mxCell><mxCell id="27" value="Specific&lt;br&gt;Startup&lt;br&gt;Page" style="whiteSpace=wrap;html=1;aspect=fixed;" parent="1" vertex="1"><mxGeometry x="320" y="240" width="80" height="80" as="geometry"/></mxCell><mxCell id="28" value="General&lt;br&gt;Analytics&lt;br&gt;Page" style="whiteSpace=wrap;html=1;aspect=fixed;" parent="1" vertex="1"><mxGeometry x="440" y="320" width="80" height="80" as="geometry"/></mxCell><mxCell id="29" value="" style="endArrow=classic;html=1;" parent="1" edge="1"><mxGeometry width="50" height="50" relative="1" as="geometry"><mxPoint x="360" y="190" as="sourcePoint"/><mxPoint x="300" y="230" as="targetPoint"/></mxGeometry></mxCell><mxCell id="30" value="" style="endArrow=classic;html=1;" parent="1" edge="1"><mxGeometry width="50" height="50" relative="1" as="geometry"><mxPoint x="360" y="190" as="sourcePoint"/><mxPoint x="360" y="230" as="targetPoint"/></mxGeometry></mxCell><mxCell id="31" value="Role &amp;gt;= 4" style="rhombus;whiteSpace=wrap;html=1;" parent="1" vertex="1"><mxGeometry x="230" y="360" width="80" height="40" as="geometry"/></mxCell><mxCell id="32" value="Role &amp;gt;= 3" style="rhombus;whiteSpace=wrap;html=1;" parent="1" vertex="1"><mxGeometry x="320" y="360" width="80" height="40" as="geometry"/></mxCell><mxCell id="33" value="" style="endArrow=none;html=1;exitX=0.5;exitY=0;exitDx=0;exitDy=0;entryX=0.5;entryY=1;entryDx=0;entryDy=0;" parent="1" source="31" target="26" edge="1"><mxGeometry width="50" height="50" relative="1" as="geometry"><mxPoint x="270" y="350" as="sourcePoint"/><mxPoint x="270" y="330" as="targetPoint"/></mxGeometry></mxCell><mxCell id="34" value="" style="endArrow=none;html=1;exitX=0.5;exitY=0;exitDx=0;exitDy=0;entryX=0.5;entryY=1;entryDx=0;entryDy=0;" parent="1" edge="1"><mxGeometry width="50" height="50" relative="1" as="geometry"><mxPoint x="359.76" y="360" as="sourcePoint"/><mxPoint x="359.76" y="320" as="targetPoint"/></mxGeometry></mxCell><mxCell id="35" value="" style="endArrow=classic;html=1;entryX=0.105;entryY=1.035;entryDx=0;entryDy=0;entryPerimeter=0;exitX=0.111;exitY=0.331;exitDx=0;exitDy=0;exitPerimeter=0;" parent="1" source="31" target="26" edge="1"><mxGeometry width="50" height="50" relative="1" as="geometry"><mxPoint x="190" y="400" as="sourcePoint"/><mxPoint x="240" y="350" as="targetPoint"/></mxGeometry></mxCell><mxCell id="36" value="Modify&lt;br&gt;Analytics" style="text;html=1;strokeColor=none;fillColor=none;align=center;verticalAlign=middle;whiteSpace=wrap;rounded=0;" parent="1" vertex="1"><mxGeometry x="190" y="340" width="50" height="30" as="geometry"/></mxCell><mxCell id="37" value="Modify&lt;br&gt;Analytics" style="text;html=1;strokeColor=none;fillColor=none;align=center;verticalAlign=middle;whiteSpace=wrap;rounded=0;" parent="1" vertex="1"><mxGeometry x="280" y="340" width="50" height="30" as="geometry"/></mxCell><mxCell id="38" value="" style="endArrow=classic;html=1;entryX=0.105;entryY=1.035;entryDx=0;entryDy=0;entryPerimeter=0;exitX=0.111;exitY=0.331;exitDx=0;exitDy=0;exitPerimeter=0;" parent="1" edge="1"><mxGeometry width="50" height="50" relative="1" as="geometry"><mxPoint x="330.48" y="370.44" as="sourcePoint"/><mxPoint x="330" y="320" as="targetPoint"/></mxGeometry></mxCell><mxCell id="39" value="Role &amp;gt;= 4" style="rhombus;whiteSpace=wrap;html=1;" parent="1" vertex="1"><mxGeometry x="440" y="240" width="80" height="40" as="geometry"/></mxCell><mxCell id="40" value="" style="endArrow=none;html=1;entryX=0.5;entryY=0;entryDx=0;entryDy=0;" parent="1" target="39" edge="1"><mxGeometry width="50" height="50" relative="1" as="geometry"><mxPoint x="360" y="190" as="sourcePoint"/><mxPoint x="480" y="150" as="targetPoint"/></mxGeometry></mxCell><mxCell id="41" value="" style="endArrow=classic;html=1;" parent="1" edge="1"><mxGeometry width="50" height="50" relative="1" as="geometry"><mxPoint x="479.66" y="280" as="sourcePoint"/><mxPoint x="479.66" y="320" as="targetPoint"/></mxGeometry></mxCell><mxCell id="42" value="View" style="text;html=1;strokeColor=none;fillColor=none;align=center;verticalAlign=middle;whiteSpace=wrap;rounded=0;" parent="1" vertex="1"><mxGeometry x="480" y="280" width="40" height="30" as="geometry"/></mxCell><mxCell id="43" value="" style="endArrow=none;dashed=1;html=1;fillColor=#60a917;strokeColor=#2D7600;" parent="1" edge="1"><mxGeometry width="50" height="50" relative="1" as="geometry"><mxPoint x="270" y="230" as="sourcePoint"/><mxPoint x="520" y="230" as="targetPoint"/></mxGeometry></mxCell><mxCell id="44" value="transition" style="text;html=1;strokeColor=none;fillColor=none;align=center;verticalAlign=middle;whiteSpace=wrap;rounded=0;" parent="1" vertex="1"><mxGeometry x="450" y="200" width="60" height="30" as="geometry"/></mxCell><mxCell id="45" value="" style="endArrow=none;dashed=1;html=1;fillColor=#a20025;strokeColor=#6F0000;" parent="1" edge="1"><mxGeometry width="50" height="50" relative="1" as="geometry"><mxPoint x="145" y="330" as="sourcePoint"/><mxPoint x="395" y="330" as="targetPoint"/></mxGeometry></mxCell><mxCell id="46" value="optimistic&lt;br&gt;updates" style="text;html=1;strokeColor=none;fillColor=none;align=center;verticalAlign=middle;whiteSpace=wrap;rounded=0;" parent="1" vertex="1"><mxGeometry x="140" y="290" width="60" height="30" as="geometry"/></mxCell><mxCell id="47" value="" style="endArrow=none;html=1;" parent="1" edge="1"><mxGeometry width="50" height="50" relative="1" as="geometry"><mxPoint x="400" y="280" as="sourcePoint"/><mxPoint x="420" y="280" as="targetPoint"/></mxGeometry></mxCell><mxCell id="48" value="" style="endArrow=none;html=1;" parent="1" edge="1"><mxGeometry width="50" height="50" relative="1" as="geometry"><mxPoint x="420" y="420" as="sourcePoint"/><mxPoint x="420" y="280" as="targetPoint"/></mxGeometry></mxCell><mxCell id="49" value="Role &amp;gt;= 1" style="rhombus;whiteSpace=wrap;html=1;" parent="1" vertex="1"><mxGeometry x="380" y="420" width="80" height="40" as="geometry"/></mxCell><mxCell id="51" value="Specific&lt;br&gt;Startup&lt;br&gt;Investment&lt;br&gt;Page" style="whiteSpace=wrap;html=1;aspect=fixed;" parent="1" vertex="1"><mxGeometry x="380" y="500" width="80" height="80" as="geometry"/></mxCell><mxCell id="52" value="" style="endArrow=classic;html=1;" parent="1" edge="1"><mxGeometry width="50" height="50" relative="1" as="geometry"><mxPoint x="420.0000000000001" y="460" as="sourcePoint"/><mxPoint x="420.0000000000001" y="500" as="targetPoint"/></mxGeometry></mxCell><mxCell id="53" value="yes" style="text;html=1;strokeColor=none;fillColor=none;align=center;verticalAlign=middle;whiteSpace=wrap;rounded=0;" parent="1" vertex="1"><mxGeometry x="425" y="460" width="35" height="30" as="geometry"/></mxCell><mxCell id="54" value="" style="endArrow=none;dashed=1;html=1;fillColor=#60a917;strokeColor=#2D7600;" parent="1" edge="1"><mxGeometry width="50" height="50" relative="1" as="geometry"><mxPoint x="330" y="430" as="sourcePoint"/><mxPoint x="430" y="474.76" as="targetPoint"/></mxGeometry></mxCell><mxCell id="55" value="transition" style="text;html=1;strokeColor=none;fillColor=none;align=center;verticalAlign=middle;whiteSpace=wrap;rounded=0;" parent="1" vertex="1"><mxGeometry x="310" y="400" width="60" height="30" as="geometry"/></mxCell><mxCell id="56" value="" style="endArrow=classic;html=1;exitX=0;exitY=0.5;exitDx=0;exitDy=0;" parent="1" source="49" edge="1"><mxGeometry width="50" height="50" relative="1" as="geometry"><mxPoint x="280" y="520" as="sourcePoint"/><mxPoint x="310" y="440" as="targetPoint"/></mxGeometry></mxCell><mxCell id="57" value="KYC&lt;br&gt;Integration&lt;br&gt;Page" style="whiteSpace=wrap;html=1;aspect=fixed;" parent="1" vertex="1"><mxGeometry x="220" y="420" width="80" height="80" as="geometry"/></mxCell><mxCell id="58" value="" style="endArrow=classic;html=1;" parent="1" edge="1"><mxGeometry width="50" height="50" relative="1" as="geometry"><mxPoint x="310" y="500" as="sourcePoint"/><mxPoint x="370" y="540" as="targetPoint"/></mxGeometry></mxCell><mxCell id="59" value="Roles:&lt;br&gt;0: Registered Viewer&lt;br&gt;1: KYC&lt;br&gt;2: KYB&lt;br&gt;3: Startup Manager&lt;br&gt;4: General manager" style="text;html=1;strokeColor=#2D7600;fillColor=#60a917;align=center;verticalAlign=middle;whiteSpace=wrap;rounded=0;fontColor=#ffffff;" parent="1" vertex="1"><mxGeometry x="10" y="360" width="120" height="100" as="geometry"/></mxCell><mxCell id="60" value="Users:&lt;br&gt;Username&lt;br&gt;Email&lt;br&gt;KYC Data&lt;br&gt;KYB Data&lt;br&gt;Role&lt;br&gt;Environments Accesses" style="text;html=1;strokeColor=#2D7600;fillColor=#60a917;align=center;verticalAlign=middle;whiteSpace=wrap;rounded=0;fontColor=#ffffff;" parent="1" vertex="1"><mxGeometry x="10" y="470" width="120" height="140" as="geometry"/></mxCell><mxCell id="61" value="" style="curved=1;endArrow=classic;html=1;" parent="1" edge="1"><mxGeometry width="50" height="50" relative="1" as="geometry"><mxPoint x="140" y="500" as="sourcePoint"/><mxPoint x="140" y="450" as="targetPoint"/><Array as="points"><mxPoint x="190" y="500"/><mxPoint x="190" y="460"/><mxPoint x="150" y="450"/></Array></mxGeometry></mxCell><mxCell id="62" value="Environment:&lt;br&gt;Data&lt;br&gt;Users" style="text;html=1;strokeColor=#2D7600;fillColor=#60a917;align=center;verticalAlign=middle;whiteSpace=wrap;rounded=0;fontColor=#ffffff;" parent="1" vertex="1"><mxGeometry x="10" y="620" width="120" height="100" as="geometry"/></mxCell><mxCell id="63" value="" style="curved=1;endArrow=classic;html=1;" parent="1" edge="1"><mxGeometry width="50" height="50" relative="1" as="geometry"><mxPoint x="145" y="600" as="sourcePoint"/><mxPoint x="140" y="640" as="targetPoint"/><Array as="points"><mxPoint x="180" y="600"/><mxPoint x="190" y="620"/><mxPoint x="190" y="630"/><mxPoint x="180" y="640"/><mxPoint x="145" y="640"/></Array></mxGeometry></mxCell></root></mxGraphModel></diagram></mxfile>